<?xml version="1.0" encoding="utf-8"?>
<!-- Generator: Adobe Illustrator 20.1.0, SVG Export Plug-In . SVG Version: 6.00 Build 0)  -->
<svg version="1.1" id="Ebene_1" xmlns="http://www.w3.org/2000/svg" xmlns:xlink="http://www.w3.org/1999/xlink" x="0px" y="0px"
	 viewBox="0 0 75.5 75.5" style="enable-background:new 0 0 75.5 75.5;" xml:space="preserve">
<path d="M50,12.1h-0.3c-1.5,0-2.9,0.1-4.3,0.4c-2.7,0.5-5.3,1.4-7.7,2.6C25.2,8.5,9.7,13.2,3,25.7c-2,3.7-3,7.8-3,12
	c0,11.7,7.8,21.5,18.5,24.6c1.1,0.3,2.3,0.6,3.5,0.8c1,0.1,2.1,0.2,3.2,0.2h0.5c1.4,0,2.8-0.1,4.1-0.3c2.8-0.5,5.5-1.4,8-2.7
	c12.5,6.7,28,1.9,34.7-10.6c2-3.7,3-7.8,3-12C75.4,23.8,64,12.2,50,12.1z M42.7,22.8L27.2,38.5v-0.7c0-1,0.1-2,0.2-2.9l13.7-13.7
	C41.6,21.7,42.1,22.2,42.7,22.8z M45.8,27.4L28.3,45c-0.3-0.9-0.5-1.8-0.7-2.7l16.9-16.9C45,25.9,45.4,26.8,45.8,27.4z M47.8,33.1
	l-17,17c-0.5-0.7-0.9-1.4-1.2-2.2l17.5-17.5C47.3,31.3,47.6,32.1,47.8,33.1z M48.3,37.7c0,0.9-0.1,1.8-0.2,2.7L34.3,54.2l-1.7-1.7
	L48.2,37C48.2,37.2,48.3,37.5,48.3,37.7z M36.6,56.2l10-10c-1.8,4.4-4.9,8.2-8.9,10.7C37.3,56.7,37,56.4,36.6,56.2z M28.9,29.1
	c1.8-4.3,4.9-8,8.8-10.4c0.3,0.2,0.6,0.4,1,0.6L28.9,29.1z M34,58.8c-1.8,0.7-3.7,1.2-5.7,1.5c-0.9,0.1-1.8,0.2-2.7,0.2h-0.9
	c-1.3,0-2.6-0.2-3.8-0.5c-0.9-0.2-1.8-0.4-2.7-0.7c-1-0.4-2-0.8-3-1.3C7.7,54,3,46.2,3,37.8c0-12.5,10.1-22.6,22.5-22.6
	c3.2,0,6.3,0.6,9.2,1.9c-6.6,4.8-10.5,12.5-10.6,20.7V38c0,1.1,0.1,2.1,0.2,3.2c0.2,1.2,0.4,2.4,0.7,3.5c0.2,0.9,0.5,1.7,0.9,2.5
	c0.4,1,0.9,2,1.4,2.9c0.4,0.7,0.8,1.4,1.3,2.1c0.6,0.8,1.2,1.6,1.9,2.4c0.5,0.6,1.1,1.2,1.7,1.7c0.7,0.7,1.5,1.3,2.3,1.9
	c0.1,0.1,0.2,0.1,0.2,0.2C34.5,58.5,34.3,58.6,34,58.8z M49.8,60.3c-3.2,0-6.3-0.7-9.1-1.9c6.6-4.8,10.5-12.4,10.5-20.5v-0.2
	c0-1.2-0.1-2.4-0.3-3.6c-0.2-1.2-0.4-2.4-0.8-3.5c-0.3-0.9-0.5-1.7-0.9-2.5c-0.4-1-0.9-1.9-1.4-2.9c-0.4-0.7-0.8-1.4-1.3-2.1
	c-0.6-0.8-1.2-1.6-1.9-2.4c-0.5-0.6-1.1-1.2-1.7-1.7c-0.7-0.7-1.5-1.3-2.3-1.9l0.2-0.2c1.8-0.8,3.8-1.3,5.8-1.6
	c1-0.1,1.9-0.2,2.9-0.2h0.7c0.4,0,0.7,0,1.1,0.1C63.2,16,72.4,25.8,72.4,37.8C72.4,50.2,62.2,60.3,49.8,60.3z"/>
</svg>
